<svg width="945" height="371" viewBox="0 0 945 371" fill="none" xmlns="http://www.w3.org/2000/svg">
<path d="M0 110.393H110.553V260.447C110.553 321.504 61.0567 371 0 371V371V110.393Z" fill="#FBBF24"/>
<path d="M512.885 110.393H623.437V371V371C562.381 371 512.885 321.504 512.885 260.447V110.393Z" fill="#FBBF24"/>
<path d="M301.875 0V0C301.875 60.9682 252.451 110.393 191.482 110.393L-4.83242e-06 110.393L0 -1.31763e-05L301.875 0Z" fill="#FBBF24"/>
<path d="M513.045 -4.81842e-06C574.013 -2.15728e-06 623.437 49.4245 623.437 110.393V110.393L431.955 110.393C370.987 110.393 321.562 60.9682 321.562 -1.31763e-05V-1.31763e-05L513.045 -4.81842e-06Z" fill="#FBBF24"/>
<path d="M945 0V0C945 60.9682 895.576 110.393 834.607 110.393L643.125 110.393V110.393C643.125 49.4245 692.549 -1.1019e-05 753.518 -8.35783e-06L945 0Z" fill="#FBBF24"/>
<path d="M945 260.607V260.607C945 321.576 895.576 371 834.607 371L643.125 371V371C643.125 310.032 692.549 260.607 753.518 260.607L945 260.607Z" fill="#FBBF24"/>
<ellipse cx="200.409" cy="201.126" rx="68.149" ry="68.0503" fill="#F59E0B"/>
<ellipse cx="880.132" cy="180.711" rx="59.8197" ry="59.733" fill="#F59E0B"/>
<path d="M424.291 357.39C395.974 357.39 368.818 346.158 348.795 326.164C328.773 306.17 317.524 279.053 317.524 250.778C317.524 222.503 328.773 195.385 348.795 175.392C368.818 155.398 395.974 144.166 424.291 144.166L424.291 250.778L424.291 357.39Z" fill="#F59E0B"/>
<path d="M796.082 144.418C796.082 164.672 788.024 184.096 773.682 198.418C759.339 212.739 739.887 220.785 719.603 220.785C699.32 220.785 679.867 212.74 665.525 198.418C651.183 184.096 643.125 164.672 643.125 144.418L719.603 144.418H796.082Z" fill="#F59E0B"/>
</svg>
