<svg width="57" height="48" viewBox="0 0 57 48" fill="none" xmlns="http://www.w3.org/2000/svg">
<path d="M29.5 8.625V17.8125H32V11.25H34.5V12.5625H37V11.25H48.25V12.5625H50.75V11.25H53.25V27H50.75V25.6875H48.25V29.625H55.75V8.625H29.5ZM34.5 15.1875V17.8125H37V15.1875H34.5ZM48.25 15.1875V17.8125H50.75V15.1875H48.25ZM19.5 20.4375V44.0625H45.75V20.4375H19.5ZM48.25 20.4375V23.0625H50.75V20.4375H48.25ZM22 23.0625H43.25V35.9001L40.0075 32.4967L39.11 31.5938L35.5938 35.2858L30.2425 29.625L29.3825 28.6813L22 36.4342V23.0625ZM36.375 25.6875C36.1248 25.6806 35.8758 25.7264 35.6427 25.8222C35.4096 25.918 35.1971 26.0618 35.0178 26.2451C34.8385 26.4285 34.696 26.6477 34.5986 26.8898C34.5013 27.132 34.4511 27.3921 34.451 27.6549C34.4509 27.9177 34.5009 28.1779 34.5981 28.4201C34.6953 28.6623 34.8377 28.8816 35.0169 29.0651C35.1961 29.2486 35.4085 29.3925 35.6415 29.4885C35.8746 29.5844 36.1235 29.6304 36.3737 29.6237C36.8625 29.6106 37.327 29.3976 37.6684 29.0301C38.0097 28.6625 38.2008 28.1696 38.201 27.6562C38.2011 27.1429 38.0103 26.6498 37.6692 26.282C37.3281 25.9143 36.8637 25.7009 36.375 25.6875ZM29.38 32.4141L35.63 38.9766L36.4925 38.0329L39.11 35.2858L43.25 39.6328V41.4375H22V40.1657L29.38 32.4141Z" fill="url(#paint0_linear_337_1601)"/>
<path d="M23.1111 10.1111V23.1111H2.86V2.88889H15.86V0H2.88889C1.3 0 0 1.3 0 2.88889V23.1111C0 24.7 1.3 26 2.88889 26H23.1111C24.7 26 26 24.7 26 23.1111V10.1111H23.1111ZM20.1933 10.1111L21.5511 7.13556L24.5267 5.77778L21.5511 4.42L20.1933 1.44444L18.8356 4.42L15.86 5.77778L18.8356 7.13556L20.1933 10.1111ZM14.7767 11.1944L12.9711 7.22222L11.1656 11.1944L7.19333 13L11.1656 14.8056L12.9711 18.7778L14.7767 14.8056L18.7489 13L14.7767 11.1944Z" fill="url(#paint1_linear_337_1601)"/>
<defs>
<linearGradient id="paint0_linear_337_1601" x1="19.5" y1="8.625" x2="49.6604" y2="8.72955" gradientUnits="userSpaceOnUse">
<stop stop-color="#FBBF24"/>
<stop offset="0.494439" stop-color="#FCD049"/>
<stop offset="1" stop-color="#F6A10E"/>
</linearGradient>
<linearGradient id="paint1_linear_337_1601" x1="0" y1="0" x2="21.6323" y2="0.0733082" gradientUnits="userSpaceOnUse">
<stop stop-color="#FBBF24"/>
<stop offset="0.494439" stop-color="#FCD049"/>
<stop offset="1" stop-color="#F6A10E"/>
</linearGradient>
</defs>
</svg>
